<svg width="98" height="58" viewBox="0 0 98 58" fill="none" xmlns="http://www.w3.org/2000/svg">
<path d="M47.6661 32.0696H37.6662V44.3843H29.8086V13.7373H37.6662V25.1781H47.6661V13.7373H55.5237V44.3843H47.6661V32.0696Z" fill="white"/>
<path d="M62.4375 13.7373H70.2951V44.3843H62.4375V13.7373Z" fill="white"/>
<path d="M77.1387 13.7373H84.9963V37.4928H97.24V44.3843H77.1387V13.7373Z" fill="white"/>
<path d="M15.259 13.7373H0V44.3843H7.85762V20.3994H14.2968C16.2171 20.3994 17.8471 21.9283 17.8616 23.8598C17.8782 25.9456 16.3187 27.2931 14.2076 27.2931H11.1653V34.0011H15.259C22.1108 34.0011 25.8582 29.4519 25.8582 23.9391C25.8561 18.3783 22.1108 13.7373 15.259 13.7373Z" fill="white"/>
</svg>
