<svg preserveAspectRatio="none" width="100%" height="100%" overflow="visible" style="display: block;" viewBox="0 0 12.6726 12.6726" fill="none" xmlns="http://www.w3.org/2000/svg">
<g id="Oval 38">
<mask id="path-1-outside-1_0_34" maskUnits="userSpaceOnUse" x="-0.434633" y="-0.434633" width="14" height="14" fill="black">
<rect fill="white" x="-0.434633" y="-0.434633" width="14" height="14"/>
<path d="M5.51263 0.565367C8.24462 0.565532 10.4589 2.7806 10.4589 5.51263C10.4589 6.62102 10.0942 7.64395 9.47845 8.46869L11.873 10.8622L10.8622 11.873L8.46869 9.47845C7.64395 10.0942 6.62102 10.4589 5.51263 10.4589C2.7806 10.4589 0.565532 8.24462 0.565367 5.51263C0.565367 2.7805 2.7805 0.565367 5.51263 0.565367Z"/>
</mask>
<path d="M5.51263 0.565367C8.24462 0.565532 10.4589 2.7806 10.4589 5.51263C10.4589 6.62102 10.0942 7.64395 9.47845 8.46869L11.873 10.8622L10.8622 11.873L8.46869 9.47845C7.64395 10.0942 6.62102 10.4589 5.51263 10.4589C2.7806 10.4589 0.565532 8.24462 0.565367 5.51263C0.565367 2.7805 2.7805 0.565367 5.51263 0.565367Z" fill="var(--fill-0, #525252)"/>
<path d="M5.51263 0.565367L5.51267 0H5.51263V0.565367ZM10.4589 5.51263L11.0243 5.51267V5.51263H10.4589ZM9.47845 8.46869L9.02542 8.13045L8.73265 8.52258L9.07876 8.86854L9.47845 8.46869ZM11.873 10.8622L12.2728 11.262L12.6726 10.8622L12.2727 10.4624L11.873 10.8622ZM10.8622 11.873L10.4624 12.2727L10.8622 12.6726L11.262 12.2728L10.8622 11.873ZM8.46869 9.47845L8.86854 9.07876L8.52258 8.73265L8.13045 9.02542L8.46869 9.47845ZM5.51263 10.4589V11.0243H5.51267L5.51263 10.4589ZM0.565367 5.51263H0V5.51267L0.565367 5.51263ZM5.51263 0.565367L5.5126 1.13073C7.93226 1.13088 9.89355 3.09274 9.89355 5.51263H10.4589H11.0243C11.0243 2.46847 8.55699 0.000183403 5.51267 0L5.51263 0.565367ZM10.4589 5.51263L9.89355 5.5126C9.8935 6.49492 9.5708 7.39999 9.02542 8.13045L9.47845 8.46869L9.93148 8.80692C10.6176 7.88791 11.0242 6.74713 11.0243 5.51267L10.4589 5.51263ZM9.47845 8.46869L9.07876 8.86854L11.4733 11.2621L11.873 10.8622L12.2727 10.4624L9.87815 8.06883L9.47845 8.46869ZM11.873 10.8622L11.4732 10.4625L10.4625 11.4732L10.8622 11.873L11.262 12.2728L12.2728 11.262L11.873 10.8622ZM10.8622 11.873L11.2621 11.4733L8.86854 9.07876L8.46869 9.47845L8.06883 9.87815L10.4624 12.2727L10.8622 11.873ZM8.46869 9.47845L8.13045 9.02542C7.39999 9.5708 6.49492 9.8935 5.5126 9.89355L5.51263 10.4589L5.51267 11.0243C6.74713 11.0242 7.88791 10.6176 8.80692 9.93148L8.46869 9.47845ZM5.51263 10.4589V9.89355C3.09274 9.89355 1.13088 7.93226 1.13073 5.5126L0.565367 5.51263L0 5.51267C0.000183403 8.55699 2.46847 11.0243 5.51263 11.0243V10.4589ZM0.565367 5.51263H1.13073C1.13073 3.09275 3.09275 1.13073 5.51263 1.13073V0.565367V0C2.46826 0 0 2.46826 0 5.51263H0.565367Z" fill="var(--stroke-0, white)" mask="url(#path-1-outside-1_0_34)"/>
</g>
</svg>
